<?xml version="1.0" encoding="UTF-8"?>
<svg version="1.1" xmlns="http://www.w3.org/2000/svg" width="1024" height="1024">
<path d="M0 0 C337.92 0 675.84 0 1024 0 C1024 337.92 1024 675.84 1024 1024 C686.08 1024 348.16 1024 0 1024 C0 686.08 0 348.16 0 0 Z " fill="#032F51" transform="translate(0,0)"/>
<path d="M0 0 C2.34207699 1.8322779 4.27251289 3.56121037 6.3125 5.6875 C6.88355469 6.27329834 7.45460938 6.85909668 8.04296875 7.46264648 C26.82997807 27.33617826 31 52.64046409 31 79 C9.22 79 -12.56 79 -35 79 C-35.99 73.72 -36.98 68.44 -38 63 C-41.41562607 55.81842724 -45.17262673 52.29063529 -52.4453125 49.03515625 C-60.49686132 46.69047445 -70.10505998 46.43051369 -78 49.5 C-89.94632122 56.15481724 -95.35491477 66.18791838 -99.45703125 78.8671875 C-101.24116361 85.87536208 -101.21998407 92.85935156 -101.24023438 100.03808594 C-101.24987706 102.09872807 -101.28092289 104.15834382 -101.3125 106.21875 C-101.44089682 122.3001788 -97.76634376 137.85802764 -86.375 149.6875 C-78.91277905 156.59696384 -71.63642681 158.70392157 -61.5078125 158.38671875 C-53.60168632 157.51510796 -46.40989575 154.93769046 -41 149 C-35.8960228 141.36946931 -36.14958294 133.1966635 -35 124 C-12.89 124 9.22 124 32 124 C32 138.14500972 32 138.14500972 30.8125 145.25 C30.677229 146.06082031 30.54195801 146.87164062 30.40258789 147.70703125 C25.93125807 172.97783062 14.40030795 194.98702335 -6.83203125 210.01171875 C-15.82577001 215.65637107 -25.2544966 219.27897434 -35.375 222.375 C-36.19484375 222.62596436 -37.0146875 222.87692871 -37.859375 223.13549805 C-62.48682904 230.28114587 -91.33073035 226.16793456 -113.76220703 214.04785156 C-126.46777268 206.81852117 -138.80139376 197.20544388 -147 185 C-150.17150235 186.36702688 -151.87537316 187.79995338 -154 190.5 C-170.67442744 209.947648 -196.72983379 221.67904754 -222 224 C-236.72952795 224.8832943 -251.54945 224.50048043 -266.2956543 224.34332275 C-271.68658562 224.29146713 -277.07763929 224.26918949 -282.46875 224.24414062 C-292.97948188 224.19108667 -303.4896793 224.10615659 -314 224 C-312.62500352 219.9895936 -311.10195418 216.93356468 -308 214 C-305.26196003 213.52993666 -303.1534329 213.38312761 -300.42431641 213.46411133 C-299.28674393 213.46783501 -299.28674393 213.46783501 -298.12619019 213.47163391 C-295.61720138 213.4853162 -293.11010853 213.53399699 -290.6015625 213.58203125 C-288.84721715 213.59645286 -287.0928494 213.60835096 -285.33847046 213.61784363 C-280.71071832 213.64828556 -276.08378213 213.70691552 -271.4564209 213.77325439 C-264.08690684 213.87540136 -256.71708128 213.93977637 -249.34708786 213.99506187 C-246.79140418 214.01892579 -244.23628008 214.05763588 -241.68081665 214.0983429 C-212.1164014 214.46255526 -184.5008232 206.36507557 -162.66015625 185.75 C-148.32685132 170.93260401 -140.61236228 153.63544042 -135 134 C-134.8050293 133.32952637 -134.61005859 132.65905273 -134.40917969 131.96826172 C-129.49910248 114.21030561 -130.35490156 93.14263976 -134.34375 75.28515625 C-134.5603125 74.20105469 -134.776875 73.11695313 -135 72 C-135.32097656 70.47439453 -135.32097656 70.47439453 -135.6484375 68.91796875 C-134.86426772 65.38920473 -134.18647662 65.08453744 -131.2578125 63.140625 C-129.56021613 62.15376826 -127.84804219 61.19172464 -126.125 60.25 C-125.2160498 59.73050781 -124.30709961 59.21101563 -123.37060547 58.67578125 C-120.59221394 57.09503058 -117.79799127 55.54572937 -115 54 C-113.47830271 53.14215575 -111.95740748 52.28288642 -110.4375 51.421875 C-106.75243247 49.34426149 -103.04574715 47.30849892 -99.33251953 45.28173828 C-96.95088505 43.97301094 -94.58233248 42.64271917 -92.21484375 41.30859375 C-65.80087567 26.52789222 -38.15219135 13.13087668 -10 2 C-9.12617676 1.64083496 -8.25235352 1.28166992 -7.35205078 0.91162109 C-4.51721528 -0.18712042 -3.01114765 -0.56031946 0 0 Z " fill="#0294D4" transform="translate(666,354)"/>
<path d="M0 0 C1.93152819 0.45058414 3.87499812 0.84911306 5.81884766 1.24316406 C39.18092794 8.50038533 72.64266415 26.01115665 99.08056641 47.48535156 C99.97646484 48.18917969 100.87236328 48.89300781 101.79541016 49.61816406 C124.00131045 67.29158251 143.42575681 88.12947083 158.08056641 112.48535156 C154.26068192 114.72702062 150.10187204 115.57102254 145.83056641 116.54785156 C145.10482422 116.72123047 144.37908203 116.89460938 143.63134766 117.07324219 C141.45396614 117.57974537 139.27000167 118.0342161 137.08056641 118.48535156 C136.36747314 118.66388672 135.65437988 118.84242188 134.91967773 119.02636719 C132.83447266 119.45800781 132.83447266 119.45800781 129.08056641 119.48535156 C126.90569935 117.55725459 125.77935906 116.23670615 124.26806641 113.86035156 C123.41427527 112.64471168 122.55740921 111.43122662 121.69775391 110.21972656 C121.2655957 109.59517578 120.8334375 108.970625 120.38818359 108.32714844 C86.28855529 60.29735084 30.18498442 33.63143472 -26.38427734 23.66503906 C-49.39881123 20.16124179 -75.13278504 21.1079291 -97.91943359 25.48535156 C-98.65049316 25.61393555 -99.38155273 25.74251953 -100.13476562 25.875 C-141.88848547 33.28155017 -179.31885161 53.82970569 -210.91943359 81.48535156 C-212.29808594 82.67837891 -212.29808594 82.67837891 -213.70458984 83.89550781 C-218.15733466 87.81096819 -222.29764402 91.79996672 -226.10400391 96.34936523 C-227.92469717 98.49154455 -229.80633241 100.56447881 -231.70068359 102.64160156 C-235.75545522 107.19798483 -239.3290998 111.9713069 -242.79443359 116.98535156 C-243.39594238 117.85264893 -243.99745117 118.71994629 -244.6171875 119.61352539 C-271.220882 158.39257249 -284.10916624 200.70326531 -284.10473633 247.64257812 C-284.10691884 250.2179428 -284.12514311 252.79287478 -284.14404297 255.36816406 C-284.19683954 271.02874802 -283.00864239 286.31232662 -278.91943359 301.48535156 C-278.55325928 302.87778076 -278.55325928 302.87778076 -278.1796875 304.29833984 C-277.31489237 307.57282156 -276.43227712 310.84204764 -275.54443359 314.11035156 C-275.26446533 315.159729 -274.98449707 316.20910645 -274.69604492 317.2902832 C-272.72713491 324.38738738 -270.09690646 330.85215958 -266.91943359 337.48535156 C-266.19058917 339.10628117 -265.46765651 340.7298856 -264.75146484 342.35644531 C-264.24776367 343.49436523 -264.24776367 343.49436523 -263.73388672 344.65527344 C-263.05389519 346.19420163 -262.37421823 347.73326886 -261.69482422 349.27246094 C-261.36289062 350.02205078 -261.03095703 350.77164062 -260.68896484 351.54394531 C-260.39610596 352.2070874 -260.10324707 352.87022949 -259.80151367 353.5534668 C-259.1803141 354.91398498 -258.52094305 356.25739335 -257.83496094 357.58642578 C-256.57915948 360.19112544 -256.47022933 361.60960463 -256.91943359 364.48535156 C-258.40650471 366.90220307 -259.88702434 369.06227286 -261.60693359 371.29785156 C-262.52664498 372.53483905 -263.44462751 373.77311392 -264.36083984 375.01269531 C-264.80314941 375.60679199 -265.24545898 376.20088867 -265.70117188 376.81298828 C-267.96689827 379.92325397 -269.94102555 383.18800482 -271.91943359 386.48535156 C-275.8065033 383.05088586 -278.07713692 379.16041029 -280.54443359 374.67285156 C-280.97248291 373.89965576 -281.40053223 373.12645996 -281.84155273 372.32983398 C-286.8155949 363.13143671 -290.8902073 353.53246366 -294.90698242 343.88623047 C-295.74151833 341.90725141 -296.62484879 339.94892285 -297.52099609 337.99707031 C-299.40776842 333.25905825 -300.61973736 328.42682064 -301.85693359 323.48535156 C-302.38113954 321.42531986 -302.9058794 319.36542395 -303.43115234 317.30566406 C-303.68429199 316.30825195 -303.93743164 315.31083984 -304.19824219 314.28320312 C-304.81718432 311.88202612 -305.45955805 309.49073287 -306.12646484 307.10253906 C-310.45485898 291.57219606 -312.0366133 276.05614596 -312.15771484 259.96582031 C-312.16578659 258.90534988 -312.17385834 257.84487946 -312.18217468 256.75227356 C-312.19590486 254.51951679 -312.20667562 252.28674 -312.21459961 250.05395508 C-312.22605497 247.81951533 -312.24640282 245.58510153 -312.27612305 243.35083008 C-312.48455901 227.60634622 -311.16415188 212.89247184 -307.91943359 197.48535156 C-307.61537338 195.97935134 -307.31179039 194.47325464 -307.00878906 192.96704102 C-298.27898852 151.03272259 -277.25347324 110.15618908 -247.53662109 79.21582031 C-245.31672493 76.89983909 -243.19388264 74.54512545 -241.10693359 72.11035156 C-235.53586803 65.69151516 -229.42898818 59.94097826 -222.91943359 54.48535156 C-222.16194824 53.84919922 -222.16194824 53.84919922 -221.38916016 53.20019531 C-184.72888084 22.61090938 -140.27554199 2.2709897 -92.91943359 -4.51464844 C-91.71416016 -4.71832031 -90.50888672 -4.92199219 -89.26708984 -5.13183594 C-59.9423319 -9.4784498 -28.69152925 -6.84807859 0 0 Z " fill="#FBFCFD" transform="translate(572.91943359375,203.5146484375)"/>
<path d="M0 0 C2.66163883 1.88193326 3.52943443 3.8502812 4.94262695 6.78027344 C5.74966064 8.44304321 5.74966064 8.44304321 6.57299805 10.1394043 C7.13196777 11.33315674 7.6909375 12.52690918 8.2668457 13.75683594 C8.55569641 14.3681839 8.84454712 14.97953186 9.14215088 15.60940552 C25.11130707 49.47430505 32.16533034 84.9953822 32.2668457 122.31933594 C32.26946411 123.24269745 32.27208252 124.16605896 32.27478027 125.11740112 C32.29383465 188.14995916 8.55050517 251.91922233 -35.44799805 297.66699219 C-37.57535095 299.89031589 -39.57512979 302.14695478 -41.5456543 304.50683594 C-50.13908664 314.38410637 -60.61320564 322.5514325 -71.0456543 330.38183594 C-71.99819092 331.10306641 -71.99819092 331.10306641 -72.9699707 331.83886719 C-103.12165532 354.49559774 -139.0825712 369.33947434 -176.0456543 376.38183594 C-177.6853418 376.70087891 -177.6853418 376.70087891 -179.3581543 377.02636719 C-211.28562384 382.8049066 -247.56112336 381.85583537 -279.0456543 374.38183594 C-280.04048828 374.15189941 -281.03532227 373.92196289 -282.06030273 373.68505859 C-332.59746181 361.72375109 -378.11073514 333.7546381 -412.91674805 295.31542969 C-414.0456543 293.38183594 -414.0456543 293.38183594 -413.75463867 291.52490234 C-412.99283152 289.22216708 -412.01820276 287.27367782 -410.83081055 285.15917969 C-410.39188477 284.37349609 -409.95295898 283.5878125 -409.50073242 282.77832031 C-409.04118164 281.96685547 -408.58163086 281.15539062 -408.1081543 280.31933594 C-407.6524707 279.50400391 -407.19678711 278.68867187 -406.72729492 277.84863281 C-404.91450389 274.61852053 -403.10158204 271.46572755 -401.0456543 268.38183594 C-397.44809911 269.87409538 -395.45713683 271.89442527 -392.9206543 274.81933594 C-392.13174805 275.71394531 -391.3428418 276.60855469 -390.5300293 277.53027344 C-388.89308703 279.40915371 -387.25763283 281.28933162 -385.6237793 283.17089844 C-379.89655796 289.64594167 -373.85491755 295.07474833 -367.0456543 300.38183594 C-365.98499984 301.25172521 -364.92647664 302.12421828 -363.86987305 302.99902344 C-346.30877013 317.39969357 -325.03162705 330.33704311 -303.34643555 337.28417969 C-300.61091942 338.1938602 -298.0154809 339.21200706 -295.3581543 340.31933594 C-285.93369769 344.12531556 -275.94490593 346.18896374 -266.0456543 348.38183594 C-265.22291016 348.56697754 -264.40016602 348.75211914 -263.55249023 348.94287109 C-232.14451606 355.64261548 -194.7028176 353.39864867 -164.0456543 344.38183594 C-163.39725586 344.19363281 -162.74885742 344.00542969 -162.08081055 343.81152344 C-146.01268294 339.11324051 -130.84264278 333.21837622 -116.0456543 325.38183594 C-115.32087891 325.00542969 -114.59610352 324.62902344 -113.84936523 324.24121094 C-103.07209334 318.62561117 -93.28336035 312.30579376 -83.76782227 304.74560547 C-82.27288455 303.56177755 -80.75673135 302.40483593 -79.23706055 301.25292969 C-65.05953196 290.22596301 -52.64051964 276.83754204 -42.0456543 262.38183594 C-41.36760742 261.49882813 -40.68956055 260.61582031 -39.9909668 259.70605469 C-26.0573402 241.26778174 -15.09844734 220.38655022 -8.0456543 198.38183594 C-7.63959961 197.19332031 -7.23354492 196.00480469 -6.81518555 194.78027344 C-4.17316825 186.90100091 -2.14837045 178.9332509 -0.3581543 170.81933594 C-0.05458008 169.45627319 -0.05458008 169.45627319 0.25512695 168.06567383 C3.48108177 152.9238484 4.39829902 138.18753453 4.3918457 122.75683594 C4.39224854 121.76694672 4.39265137 120.7770575 4.39306641 119.75717163 C4.30343929 81.38942573 -6.09809322 47.14917976 -23.65893555 13.22705078 C-26.0456543 8.58688805 -26.0456543 8.58688805 -26.0456543 6.38183594 C-23.54655855 5.58722054 -21.04644287 4.79609191 -18.5456543 4.00683594 C-17.84956055 3.78511719 -17.1534668 3.56339844 -16.4362793 3.33496094 C-14.31112356 2.66593043 -12.18013844 2.0204316 -10.0456543 1.38183594 C-9.32764648 1.1572168 -8.60963867 0.93259766 -7.86987305 0.70117188 C-2.66079326 -0.80404923 -2.66079326 -0.80404923 0 0 Z " fill="#FAFBFC" transform="translate(738.045654296875,328.6181640625)"/>
<path d="M0 0 C2.34207699 1.8322779 4.27251289 3.56121037 6.3125 5.6875 C6.88355469 6.27329834 7.45460938 6.85909668 8.04296875 7.46264648 C26.82997807 27.33617826 31 52.64046409 31 79 C9.22 79 -12.56 79 -35 79 C-35.99 73.72 -36.98 68.44 -38 63 C-41.41562607 55.81842724 -45.17262673 52.29063529 -52.4453125 49.03515625 C-60.49686132 46.69047445 -70.10505998 46.43051369 -78 49.5 C-89.94632122 56.15481724 -95.35491477 66.18791838 -99.45703125 78.8671875 C-101.24116361 85.87536208 -101.21998407 92.85935156 -101.24023438 100.03808594 C-101.24987706 102.09872807 -101.28092289 104.15834382 -101.3125 106.21875 C-101.44089682 122.3001788 -97.76634376 137.85802764 -86.375 149.6875 C-78.91277905 156.59696384 -71.63642681 158.70392157 -61.5078125 158.38671875 C-53.60168632 157.51510796 -46.40989575 154.93769046 -41 149 C-35.8960228 141.36946931 -36.14958294 133.1966635 -35 124 C-12.89 124 9.22 124 32 124 C32 138.14500972 32 138.14500972 30.8125 145.25 C30.677229 146.06082031 30.54195801 146.87164062 30.40258789 147.70703125 C25.93125807 172.97783062 14.40030795 194.98702335 -6.83203125 210.01171875 C-15.82577001 215.65637107 -25.2544966 219.27897434 -35.375 222.375 C-36.19484375 222.62596436 -37.0146875 222.87692871 -37.859375 223.13549805 C-62.48682904 230.28114587 -91.33073035 226.16793456 -113.76220703 214.04785156 C-126.46777268 206.81852117 -138.80139376 197.20544388 -147 185 C-150.17150235 186.36702688 -151.87537316 187.79995338 -154 190.5 C-170.67442744 209.947648 -196.72983379 221.67904754 -222 224 C-236.72952795 224.8832943 -251.54945 224.50048043 -266.2956543 224.34332275 C-271.68658562 224.29146713 -277.07763929 224.26918949 -282.46875 224.24414062 C-292.97948188 224.19108667 -303.4896793 224.10615659 -314 224 C-312.62500352 219.9895936 -311.10195418 216.93356468 -308 214 C-305.26196003 213.52993666 -303.1534329 213.38312761 -300.42431641 213.46411133 C-299.28674393 213.46783501 -299.28674393 213.46783501 -298.12619019 213.47163391 C-295.61720138 213.4853162 -293.11010853 213.53399699 -290.6015625 213.58203125 C-288.84721715 213.59645286 -287.0928494 213.60835096 -285.33847046 213.61784363 C-280.71071832 213.64828556 -276.08378213 213.70691552 -271.4564209 213.77325439 C-264.08690684 213.87540136 -256.71708128 213.93977637 -249.34708786 213.99506187 C-246.79140418 214.01892579 -244.23628008 214.05763588 -241.68081665 214.0983429 C-212.1164014 214.46255526 -184.5008232 206.36507557 -162.66015625 185.75 C-148.32685132 170.93260401 -140.61236228 153.63544042 -135 134 C-134.8050293 133.32952637 -134.61005859 132.65905273 -134.40917969 131.96826172 C-129.49910248 114.21030561 -130.35490156 93.14263976 -134.34375 75.28515625 C-134.99224516 72.03882035 -135.33285952 69.29530929 -135 66 C-130.15789474 62 -130.15789474 62 -127 62 C-126.35118552 64.54093855 -125.70587101 67.08268273 -125.0625 69.625 C-124.88009766 70.33785156 -124.69769531 71.05070312 -124.50976562 71.78515625 C-124.33251953 72.48769531 -124.15527344 73.19023437 -123.97265625 73.9140625 C-123.81031494 74.5529541 -123.64797363 75.1918457 -123.48071289 75.85009766 C-121.81466471 83.30119989 -121.81388414 90.61532586 -121.81469727 98.20996094 C-121.81253292 100.46569331 -121.79440997 102.72091787 -121.77539062 104.9765625 C-121.68460749 128.03880668 -126.36904811 152.84336845 -140.12890625 171.921875 C-141.23887024 174.01067683 -141.23887024 174.01067683 -140.47265625 176.3984375 C-138.65383316 179.61153082 -136.40034105 182.21279681 -133.875 184.875 C-133.37782471 185.40383789 -132.88064941 185.93267578 -132.3684082 186.47753906 C-130.92457844 187.99755607 -129.46683384 189.50220258 -128 191 C-127.33613281 191.67804688 -126.67226563 192.35609375 -125.98828125 193.0546875 C-120.12325316 198.57621069 -113.06818268 202.26080514 -106 206 C-105.0925 206.48726562 -104.185 206.97453125 -103.25 207.4765625 C-84.44586284 216.82130139 -58.9996568 218.39691322 -38.625 213.5 C-36.38952553 212.7424814 -34.17967781 211.90564078 -32 211 C-31.32904297 210.73155273 -30.65808594 210.46310547 -29.96679688 210.18652344 C-9.5119018 201.87384556 4.85343333 189.14867513 13.5390625 168.67578125 C18.11092827 157.17277138 19.92042867 146.477428 22 134 C6.16 134 -9.68 134 -26 134 C-26 135.98 -26 137.96 -26 140 C-28.94489903 149.77289502 -33.63087918 158.80738041 -42.75 163.90234375 C-54.24782514 169.51152581 -64.97755864 170.88550584 -77.37109375 167.04296875 C-81.94715058 165.2275049 -85.96872433 162.80737208 -90 160 C-90.95712891 159.33871094 -90.95712891 159.33871094 -91.93359375 158.6640625 C-104.37529118 149.07647383 -109.76683981 131.27462162 -111.76855469 116.30419922 C-114.02041117 93.88540019 -111.61538651 70.78339133 -97.38671875 52.51171875 C-91.09121499 44.97620854 -83.93108581 39.45060804 -74 38 C-59.89610583 37.01276187 -48.17554399 37.71650772 -36.9375 47.1484375 C-32.01484392 51.85274997 -28.60742955 57.33504822 -27 64 C-27 65.65 -27 67.3 -27 69 C-11.16 69 4.68 69 21 69 C19.84658482 54.03572852 19.84658482 54.03572852 15.9375 40.1875 C15.63368408 39.40963135 15.32986816 38.6317627 15.0168457 37.83032227 C9.99231502 25.5162384 2.78587961 16.02531902 -7 7 C-8.33902397 5.67238169 -9.67427249 4.34089602 -11 3 C-4.32865731 -0.7235401 -4.32865731 -0.7235401 0 0 Z " fill="#F5F9FA" transform="translate(666,354)"/>
<path d="M0 0 C0 0.66 0 1.32 0 2 C-0.82564453 2.22042969 -0.82564453 2.22042969 -1.66796875 2.4453125 C-3.53409742 2.94873326 -5.39841293 3.45888578 -7.26171875 3.97265625 C-9.2217595 4.51130904 -11.18228385 5.04837963 -13.14697266 5.56982422 C-28.81192003 9.73191233 -43.89851898 15.13149324 -59 21 C-60.07991211 21.41878418 -61.15982422 21.83756836 -62.27246094 22.26904297 C-100.41718966 37.17637781 -137.82454249 54.86525735 -173.25244141 75.41894531 C-176.1069821 77.06156176 -178.97797564 78.67139689 -181.85546875 80.2734375 C-194.16529444 87.13235029 -206.20096554 94.29466426 -218 102 C-218.74024414 102.48291504 -219.48048828 102.96583008 -220.24316406 103.46337891 C-236.91293229 114.37854197 -253.35570818 125.6513331 -269 138 C-270.17138589 138.91468921 -271.34327896 139.82872922 -272.515625 140.7421875 C-288.36351016 153.10980326 -303.781342 165.94156498 -318.51123047 179.62451172 C-320.00026095 181.00024109 -321.50031644 182.36286695 -323.00390625 183.72265625 C-329.62679567 189.73376763 -336.03986728 195.93621294 -342.375 202.25 C-343.49865967 203.36677124 -343.49865967 203.36677124 -344.64501953 204.50610352 C-348.75135264 208.62387615 -352.68578048 212.83405285 -356.48095703 217.24023438 C-358.35658469 219.41309265 -360.3025324 221.5165213 -362.25 223.625 C-367.83366058 229.83011352 -372.9425843 236.36685066 -378 243 C-378.54317871 243.70801758 -379.08635742 244.41603516 -379.64599609 245.14550781 C-401.36786827 273.57441907 -419.43093409 303.29214745 -425 339 C-432.34473478 332.08277001 -434.99882383 319.86734976 -435.375 310.0625 C-434.52852786 271.34753732 -403.50397507 237.4541921 -378.53027344 210.64794922 C-376.83806758 208.82561521 -375.15725992 206.99310722 -373.4765625 205.16015625 C-362.74162592 193.49623477 -362.74162592 193.49623477 -356.85546875 188.6015625 C-354.62067828 186.67258546 -352.57144113 184.60309304 -350.5 182.5 C-346.49183511 178.45107411 -342.32337558 174.70575049 -338 171 C-336.88450045 170.02187724 -335.77000716 169.0426063 -334.65625 168.0625 C-326.91008861 161.26368149 -319.02972435 154.70988836 -310.85839844 148.42871094 C-308.89387861 146.91841535 -306.93526477 145.4006433 -304.9765625 143.8828125 C-289.2549312 131.73819609 -273.21526923 120.24581578 -256.45849609 109.56884766 C-254.10836539 108.06915154 -251.76643881 106.5573929 -249.42578125 105.04296875 C-236.22804135 96.55099202 -222.66141551 88.71851858 -209 81 C-208.10007324 80.49001465 -207.20014648 79.9800293 -206.27294922 79.45458984 C-173.43497328 60.93269275 -139.37147514 45.03782123 -104.25 31.375 C-103.27672256 30.99580414 -103.27672256 30.99580414 -102.28378296 30.60894775 C-95.63751572 28.029533 -89.01368316 25.56957317 -82.14428711 23.65039062 C-79.80193987 22.93992574 -77.57327866 22.06120441 -75.3125 21.125 C-64.32563319 16.63114934 -52.98651401 13.36797614 -41.55078125 10.25390625 C-37.11907683 9.04353897 -32.7151422 7.74902182 -28.3125 6.4375 C-22.80429283 4.80806868 -17.28967184 3.2069176 -11.75 1.6875 C-10.56921875 1.36136719 -9.3884375 1.03523438 -8.171875 0.69921875 C-5.31469531 0.06937249 -2.90882993 -0.14762859 0 0 Z " fill="#F8FAFB" transform="translate(730,323)"/>
<path d="M0 0 C1.50563031 -0.01140751 3.0112239 -0.03167643 4.51660156 -0.06152344 C18.24748508 -0.3329567 30.33421368 1.62446491 42.9753418 7.29516602 C39.49114413 10.77936368 34.57270198 12.29077858 29.6628418 12.29907227 C27.41169645 12.04503677 25.20749128 11.6821197 22.9753418 11.29516602 C-4.55657024 7.23558253 -30.9065918 11.38572143 -53.97387695 27.33422852 C-61.89536434 33.42394776 -69.92412627 40.62426173 -75.0246582 49.29516602 C-74.49881599 52.97606152 -72.73448026 56.02420208 -71.0246582 59.29516602 C-77.7746582 63.29516602 -77.7746582 63.29516602 -80.0246582 63.29516602 C-81.27766989 61.37808818 -82.45063084 59.40851489 -83.5871582 57.42016602 C-87.3845321 50.99438102 -91.82148937 45.66033828 -97.0246582 40.29516602 C-97.56348633 39.68286133 -98.10231445 39.07055664 -98.6574707 38.43969727 C-110.41703401 25.52781494 -128.5362781 18.55272895 -145.0246582 14.29516602 C-145.62927887 14.12790009 -146.23389954 13.96063416 -146.85684204 13.78829956 C-155.89872787 11.61390097 -165.13541811 11.93985486 -174.3762207 11.88110352 C-176.24523754 11.86236696 -178.11424614 11.84279174 -179.98324585 11.82241821 C-184.87228512 11.7713536 -189.76135174 11.7315914 -194.6505127 11.6942749 C-199.65159731 11.65407326 -204.65257069 11.60305509 -209.65356445 11.55297852 C-219.4438506 11.45652366 -229.23419994 11.37202261 -239.0246582 11.29516602 C-239.01774476 12.62068088 -239.01774476 12.62068088 -239.01069164 13.97297382 C-238.90036807 35.45451601 -238.81757746 56.93600951 -238.76559734 78.41777515 C-238.73979329 88.80612663 -238.70460078 99.19428926 -238.64746094 109.58251953 C-238.59769329 118.63475835 -238.56538321 127.68686042 -238.55421573 136.73923224 C-238.54768569 141.53441934 -238.53229283 146.32921518 -238.49600792 151.12427711 C-238.46215316 155.63459586 -238.45158381 160.14436096 -238.4591198 164.65479469 C-238.45774052 166.31288661 -238.44774523 167.97099642 -238.42863083 169.62897873 C-238.40385524 171.88821195 -238.40969368 174.14533825 -238.42338562 176.40461731 C-238.41647217 178.30304996 -238.41647217 178.30304996 -238.40941906 180.23983479 C-239.0246582 183.29516602 -239.0246582 183.29516602 -241.24973774 184.97582531 C-242.62332337 185.62889896 -242.62332337 185.62889896 -244.0246582 186.29516602 C-246.4996582 188.27516602 -246.4996582 188.27516602 -249.0246582 190.29516602 C-249.0246582 127.92516602 -249.0246582 65.55516602 -249.0246582 1.29516602 C-144.78363385 1.29516602 -144.78363385 1.29516602 -126.5871582 9.10766602 C-125.75788818 9.45240967 -124.92861816 9.79715332 -124.07421875 10.15234375 C-107.32193118 17.27913392 -93.63428266 28.26522075 -81.0246582 41.29516602 C-80.63536133 40.76149414 -80.24606445 40.22782227 -79.8449707 39.67797852 C-64.45740127 19.1848561 -43.86082882 6.70896183 -19.0246582 1.29516602 C-18.28610596 1.12082031 -17.54755371 0.94647461 -16.78662109 0.7668457 C-11.25508191 -0.17781387 -5.59979897 0.02937482 0 0 Z " fill="#F2F5F7" transform="translate(600.024658203125,333.704833984375)"/>
<path d="M0 0 C39.42943038 0 39.42943038 0 49.28515625 8.23046875 C57.62357159 16.83480166 59.33500278 25.24378564 59.25 36.875 C59.26160156 38.45087891 59.26160156 38.45087891 59.2734375 40.05859375 C59.24696694 50.63358271 57.53701791 58.94504277 50.24609375 66.91796875 C36.21339266 80.21359867 18.67653495 77 0 77 C0 51.59 0 26.18 0 0 Z " fill="#F5F7F8" transform="translate(218,770)"/>
<path d="M0 0 C6.34021071 4.72782954 9.15734607 11.88281065 10.875 19.4140625 C10.936875 20.5484375 10.99875 21.6828125 11.0625 22.8515625 C11.124375 23.59792969 11.18625 24.34429688 11.25 25.11328125 C11.66808209 33.43572784 9.48756128 41.17177103 4.3125 47.7890625 C-0.15985454 52.53453793 -6.52028008 55.58669539 -13.01171875 56.08984375 C-22.23054272 56.27920338 -27.58721274 55.41088844 -34.6875 49.6015625 C-37.43170009 46.24754016 -39.22025737 42.81096909 -40.9375 38.8515625 C-41.47890625 37.69720703 -41.47890625 37.69720703 -42.03125 36.51953125 C-44.85109541 28.2180036 -43.57334112 17.74065173 -39.9375 9.8515625 C-36.28981858 3.40846167 -31.17650475 -1.47323639 -24.01953125 -3.76171875 C-15.60006394 -5.32555977 -7.38601449 -4.37800052 0 0 Z " fill="#0596D3" transform="translate(508.9375,792.1484375)"/>
<path d="M0 0 C5.94801317 3.38087394 9.4260572 8.65317161 11.5625 15.0625 C11.5625 20.6725 11.5625 26.2825 11.5625 32.0625 C0.0125 32.0625 -11.5375 32.0625 -23.4375 32.0625 C-21.77352255 39.67387423 -21.77352255 39.67387423 -17.4375 45.0625 C-13.12162981 47.61074768 -9.33824021 47.69723442 -4.4375 47.0625 C-0.67413606 45.94706997 2.94327262 44.57784006 6.5625 43.0625 C9.5625 49.6875 9.5625 49.6875 9.5625 53.0625 C-0.24486482 58.26337528 -10.10107504 60.11788196 -20.98828125 57.43359375 C-27.60000106 54.57065488 -32.15547984 48.84271233 -35.10546875 42.4453125 C-36.82705475 37.55793689 -36.97455365 32.83147269 -36.9375 27.6875 C-36.93105469 26.7579248 -36.92460937 25.82834961 -36.91796875 24.87060547 C-36.69820232 16.64816018 -35.19629937 11.078959 -29.5 4.9921875 C-21.20093125 -2.77247152 -10.62492386 -4.66852715 0 0 Z " fill="#F7F9F9" transform="translate(324.4375,789.9375)"/>
<path d="M0 0 C6.70763046 4.03306895 10.67517309 9.88819236 12.5625 17.4375 C12.5625 22.3875 12.5625 27.3375 12.5625 32.4375 C0.6825 32.4375 -11.1975 32.4375 -23.4375 32.4375 C-20.92614961 40.95460515 -20.92614961 40.95460515 -15.4375 46.4375 C-8.20097385 48.84967538 -2.27275149 47.26587993 4.5625 44.4375 C5.5525 44.4375 6.5425 44.4375 7.5625 44.4375 C8.5525 47.4075 9.5425 50.3775 10.5625 53.4375 C0.06266466 58.2492085 -9.55211842 60.73638819 -20.8125 56.9375 C-26.0082369 54.53362822 -29.25380245 51.13282053 -32.4375 46.4375 C-32.87191406 45.80328125 -33.30632813 45.1690625 -33.75390625 44.515625 C-38.25378379 36.42525284 -37.67489855 25.74403611 -35.625 16.953125 C-32.71368211 8.98743579 -27.69951618 3.05558988 -20.05078125 -0.75 C-13.77075315 -2.70253489 -6.05083311 -2.72170678 0 0 Z " fill="#0698D5" transform="translate(693.4375,789.5625)"/>
<path d="M0 0 C-3.17211439 2.11474292 -6.32016548 3.29223099 -9.875 4.5625 C-19.26040922 7.9993951 -28.40729588 11.94900738 -37.56640625 15.94335938 C-39.66453746 16.85434572 -41.76745525 17.75171342 -43.875 18.640625 C-62.09045747 26.41360038 -80.18103998 35.03357307 -97.4453125 44.7421875 C-100 46 -100 46 -103 46 C-105.25 43.25 -105.25 43.25 -107 40 C-106.0653391 31.21771453 -95.23145397 22.41421411 -89 17 C-63.18976448 -2.60072564 -31.25539455 -7.93188261 0 0 Z " fill="#0395D4" transform="translate(631,346)"/>
<path d="M0 0 C-0.68379546 3.95008059 -1.78843183 6.63457018 -4 10 C-6.72641988 9.51886708 -9.16031856 8.93805874 -11.75 7.9375 C-18.07419701 6.1132124 -24.14019825 6.36015472 -30.21484375 8.96875 C-35.67881948 12.12518237 -37.55286313 16.82025503 -39.37817383 22.52978516 C-40.37516525 26.49035021 -40.48996574 30.30682331 -40.4375 34.375 C-40.42992676 35.20209473 -40.42235352 36.02918945 -40.41455078 36.88134766 C-40.22165813 44.07187884 -39.39484049 51.05145558 -34.5390625 56.69921875 C-29.30460125 61.33583544 -24.78109676 62.48468775 -17.96484375 62.40234375 C-13.78864449 61.83561315 -10.61778787 60.17984581 -6.99609375 58.09375 C-5 57 -5 57 -3 57 C1 63.5 1 63.5 1 68 C-0.22782862 68.62762455 -1.45733836 69.25196065 -2.6875 69.875 C-3.37199219 70.22304688 -4.05648437 70.57109375 -4.76171875 70.9296875 C-5.50035156 71.28289062 -6.23898437 71.63609375 -7 72 C-8.10021484 72.55107422 -8.10021484 72.55107422 -9.22265625 73.11328125 C-17.14704346 75.64328954 -29.38699109 75.4148734 -37.0546875 72.15234375 C-45.63250236 67.07110804 -50.53106745 60.29178362 -54 51 C-56.82919442 39.00629849 -56.99493232 22.92456308 -51 12 C-50.443125 10.948125 -49.88625 9.89625 -49.3125 8.8125 C-35.94301023 -7.44769026 -18.34499404 -8.79554509 0 0 Z " fill="#0695D3" transform="translate(458,774)"/>
<path d="M0 0 C3.88073831 3.28655829 5.98357005 6.84600133 7 11.8125 C7.08384385 13.33898786 7.11781972 14.86867824 7.11352539 16.39746094 C7.11344986 17.29809265 7.11337433 18.19872437 7.11329651 19.12664795 C7.10813522 20.09032288 7.10297394 21.0539978 7.09765625 22.046875 C7.0962413 23.04003723 7.09482635 24.03319946 7.09336853 25.05645752 C7.08777588 28.22516912 7.0752247 31.39380979 7.0625 34.5625 C7.05748405 36.71223856 7.05292131 38.86197823 7.04882812 41.01171875 C7.03780885 46.27867312 7.02054923 51.54557454 7 56.8125 C2.71 56.8125 -1.58 56.8125 -6 56.8125 C-6.01458252 55.56114258 -6.02916504 54.30978516 -6.04418945 53.02050781 C-6.10217927 48.37601197 -6.1794123 43.73200061 -6.26245117 39.08789062 C-6.29569726 37.07820501 -6.32373019 35.06842609 -6.34643555 33.05859375 C-6.37998722 30.16886653 -6.43230337 27.27999407 -6.48828125 24.390625 C-6.49467117 23.49257141 -6.5010611 22.59451782 -6.50764465 21.66925049 C-6.61318867 16.75920781 -6.61318867 16.75920781 -8.37646484 12.24707031 C-10.68179175 10.21006265 -12.2714253 10.27885049 -15.3125 10.3125 C-16.23675781 10.3021875 -17.16101563 10.291875 -18.11328125 10.28125 C-22.05908424 11.00740589 -23.99310207 12.12458137 -27 14.8125 C-27.90315098 17.99328862 -27.83799879 21.10103387 -27.8046875 24.390625 C-27.82524704 25.78048615 -27.82524704 25.78048615 -27.84622192 27.19842529 C-27.88356898 30.15360865 -27.87980394 33.10711384 -27.875 36.0625 C-27.89312349 38.06773466 -27.91392508 40.07294703 -27.9375 42.078125 C-27.98939517 46.98986515 -28.0044275 51.90050071 -28 56.8125 C-32.29 56.8125 -36.58 56.8125 -41 56.8125 C-41 37.6725 -41 18.5325 -41 -1.1875 C-37.37 -1.1875 -33.74 -1.1875 -30 -1.1875 C-29.34 0.7925 -28.68 2.7725 -28 4.8125 C-27.39671875 4.39097656 -26.7934375 3.96945312 -26.171875 3.53515625 C-25.37265625 2.98730469 -24.5734375 2.43945312 -23.75 1.875 C-22.96109375 1.32972656 -22.1721875 0.78445313 -21.359375 0.22265625 C-15.24801812 -3.42999248 -6.0057948 -4.08496491 0 0 Z " fill="#0595D3" transform="translate(574,790.1875)"/>
<path d="M0 0 C0.99 0.99 0.99 0.99 2 2 C4.28057156 2.77437318 6.58107324 3.39684766 8.90625 4.0234375 C11 5 11 5 12.25 6.8515625 C13.45692778 10.30890769 13.83579942 13.40532286 13 17 C9.9274226 19.84775466 7.81216303 20.8898118 3.66015625 21.453125 C-1.93616226 23.81827135 -3.39394522 28.09294663 -6 33.375 C-7.04559118 35.39649789 -8.09245541 37.41733784 -9.140625 39.4375 C-9.8821582 40.8915625 -9.8821582 40.8915625 -10.63867188 42.375 C-12.23502908 45.45319812 -13.95417671 48.40942026 -15.75 51.375 C-19.90356368 58.37584688 -23.4213071 65.69453036 -27 73 C-27.6649773 74.33417668 -28.33061641 75.66802859 -29 77 C-28.34 77 -27.68 77 -27 77 C-23.36219213 82.0708837 -22.40337048 85.41261495 -23.3125 91.625 C-24.40381267 95.39498921 -26.16893147 97.30703237 -29 100 C-32.92265998 101.96132999 -37.71349439 101.34738685 -42 101 C-45.7597962 99.43341825 -48.02990428 97.56493511 -50 94 C-50.39605823 92.45918478 -50.75365469 90.90820712 -51.08203125 89.3515625 C-51.25581299 88.53768066 -51.42959473 87.72379883 -51.60864258 86.88525391 C-51.8023645 85.95205322 -51.8023645 85.95205322 -52 85 C-69.32412978 79.82838893 -86.6345281 74.69256249 -104.1640625 70.25390625 C-109.58670396 68.87427547 -114.92524882 67.26192213 -120.2578125 65.56640625 C-124.36142389 64.71879421 -126.93834031 65.31944891 -130.4375 67.5625 C-133.71672137 69.40206321 -135.28675886 69.66838341 -139 69 C-139.92925149 67.93835353 -140.83754533 66.85822457 -141.73168945 65.7668457 C-144.43540018 63.3923745 -145.57633417 62.98257623 -149.22567749 63.13265991 C-153.35319854 63.97254936 -157.36701002 65.02351217 -161.41796875 66.16796875 C-162.92205335 66.56354134 -164.42706455 66.9556059 -165.93293762 67.34431458 C-169.88741288 68.37377338 -173.8293294 69.44487966 -177.76971436 70.52685547 C-184.08325947 72.25199147 -190.41492395 73.9097404 -196.74468422 75.57415199 C-198.95259921 76.16056669 -201.15579746 76.76249628 -203.35868835 77.36747742 C-204.71066822 77.73111317 -206.06270092 78.09455253 -207.41479492 78.45776367 C-209.18182014 78.94124519 -209.18182014 78.94124519 -210.98454285 79.43449402 C-213.83639265 79.96931777 -215.32422743 80.0046453 -218 79 C-209.75837433 76.03744475 -201.3232905 74.06644159 -192.8125 72.0625 C-189.96392767 71.39051749 -187.11616011 70.71532675 -184.26953125 70.03515625 C-183.57273254 69.86869598 -182.87593384 69.70223572 -182.15802002 69.5307312 C-177.56876762 68.41932507 -173.03701175 67.17767523 -168.50390625 65.85546875 C-163.40447509 64.36824095 -158.35974456 63.13813032 -153.125 62.25 C-152.42503906 62.12496094 -151.72507812 61.99992188 -151.00390625 61.87109375 C-149.33707642 61.57426104 -147.66871155 61.28606484 -146 61 C-146.07154297 59.60201172 -146.07154297 59.60201172 -146.14453125 58.17578125 C-146 55 -146 55 -143.6875 52.1875 C-140.57894566 49.65728135 -138.62526096 49.09437901 -134.6875 48.5 C-130.1078452 49.12097014 -128.82548327 50.48010667 -126.08984375 54.04296875 C-124.56775058 56.77618982 -124.55295667 58.94520395 -125 62 C-123.23269531 62.185625 -123.23269531 62.185625 -121.4296875 62.375 C-117.50279576 62.86994303 -113.90766494 63.80808807 -110.125 65 C-101.15051166 67.75296218 -92.07888594 70.12184103 -83 72.5 C-71.61074672 75.48739307 -60.25477989 78.53297028 -49 82 C-48.7215625 81.21238281 -48.443125 80.42476562 -48.15625 79.61328125 C-47 77 -47 77 -44.5 75.1875 C-41.19374417 74.06573463 -39.20279504 73.87266903 -35.78125 73.92578125 C-34.43643555 73.94185425 -34.43643555 73.94185425 -33.06445312 73.95825195 C-32.38318359 73.97202881 -31.70191406 73.98580566 -31 74 C-17.91514347 50.19849597 -17.91514347 50.19849597 -5.54296875 26.0234375 C-4.13652265 23.26751527 -2.62777597 20.62986027 -1 18 C-1.66 17.67 -2.32 17.34 -3 17 C-2.01 11.39 -1.02 5.78 0 0 Z " fill="#033D66" transform="translate(307,645)"/>
<path d="M0 0 C3.44252775 2.99905801 5.49516529 6.50953894 6.13961792 11.00267029 C6.25029048 13.85114329 6.23900445 16.67343177 6.1796875 19.5234375 C6.17402771 20.55674698 6.16836792 21.59005646 6.16253662 22.65467834 C6.14025299 25.93563332 6.09007033 29.21547219 6.0390625 32.49609375 C6.0189872 34.72849979 6.00073824 36.96092304 5.984375 39.19335938 C5.94041424 44.64886362 5.8714412 50.10353984 5.7890625 55.55859375 C1.8290625 55.55859375 -2.1309375 55.55859375 -6.2109375 55.55859375 C-6.2202832 54.3375293 -6.22962891 53.11646484 -6.23925781 51.85839844 C-6.27914673 47.32563876 -6.34490243 42.7935586 -6.41845703 38.26123047 C-6.44667303 36.30005628 -6.46788444 34.33876824 -6.48193359 32.37744141 C-6.50335449 29.55702398 -6.54999959 26.73797632 -6.6015625 23.91796875 C-6.60279114 23.04178894 -6.60401978 22.16560913 -6.60528564 21.26287842 C-6.70517065 16.28129468 -6.70517065 16.28129468 -9.10107422 12.00683594 C-11.62659981 10.27327683 -13.03948217 10.02063169 -16.0859375 10.05859375 C-16.90835938 10.04828125 -17.73078125 10.03796875 -18.578125 10.02734375 C-22.36775932 10.79201774 -24.30622112 11.97629597 -27.2109375 14.55859375 C-28.11552123 17.7388343 -28.04893433 20.8473209 -28.015625 24.13671875 C-28.03618454 25.5265799 -28.03618454 25.5265799 -28.05715942 26.94451904 C-28.09450648 29.8997024 -28.09074144 32.85320759 -28.0859375 35.80859375 C-28.10406099 37.81382841 -28.12486258 39.81904078 -28.1484375 41.82421875 C-28.20033267 46.7359589 -28.215365 51.64659446 -28.2109375 56.55859375 C-32.5009375 56.55859375 -36.7909375 56.55859375 -41.2109375 56.55859375 C-41.2109375 37.74859375 -41.2109375 18.93859375 -41.2109375 -0.44140625 C-37.5809375 -0.44140625 -33.9509375 -0.44140625 -30.2109375 -0.44140625 C-30.2109375 1.53859375 -30.2109375 3.51859375 -30.2109375 5.55859375 C-29.45167969 5.06488281 -28.69242188 4.57117188 -27.91015625 4.0625 C-26.91628906 3.42183594 -25.92242188 2.78117188 -24.8984375 2.12109375 C-23.91230469 1.48300781 -22.92617188 0.84492187 -21.91015625 0.1875 C-14.90781476 -4.03822562 -7.19643049 -3.4450997 0 0 Z " fill="#0596D4" transform="translate(638.2109375,790.44140625)"/>
<path d="M0 0 C18.69252078 0 18.69252078 0 24 4 C30.48939798 10.84762377 31.22270847 16.49020816 31.3125 25.625 C31.34150391 26.58535156 31.37050781 27.54570313 31.40039062 28.53515625 C31.46289926 35.62267328 30.45306697 42.11783604 25.58740234 47.58813477 C17.55771623 54.69349422 11.27910739 53 0 53 C0 35.51 0 18.02 0 0 Z " fill="#042F51" transform="translate(232,782)"/>
<path d="M0 0 C4.62 0 9.24 0 14 0 C18.35189817 13.66084013 22.68939659 27.32607125 27 41 C27.33 41 27.66 41 28 41 C28.15557373 40.44763672 28.31114746 39.89527344 28.47143555 39.32617188 C31.14880573 29.83894746 33.83394984 20.35463327 36.75 10.9375 C37.33007812 9.06384766 37.33007812 9.06384766 37.921875 7.15234375 C39 4 39 4 41 0 C45.29 0 49.58 0 54 0 C51.92944796 7.06113387 49.6692445 14.0228364 47.2421875 20.96875 C46.7194072 22.47193787 46.7194072 22.47193787 46.18606567 24.00549316 C45.4559594 26.10330252 44.72481672 28.20075144 43.99267578 30.29785156 C42.86873418 33.51795162 41.74858536 36.73935314 40.62890625 39.9609375 C39.91688859 42.00528564 39.20465676 44.0495592 38.4921875 46.09375 C38.15677948 47.05825073 37.82137146 48.02275146 37.47579956 49.01647949 C37.16522614 49.9050061 36.85465271 50.79353271 36.53466797 51.70898438 C36.26169891 52.49156616 35.98872986 53.27414795 35.70748901 54.08044434 C35 56 35 56 34 58 C29.38 58 24.76 58 20 58 C17.93472596 52.3815333 15.87183724 46.76219836 13.81103516 41.14208984 C13.11147494 39.2352812 12.41129386 37.32870021 11.71044922 35.42236328 C1.56398623 7.81993116 1.56398623 7.81993116 0 0 Z " fill="#F5F7F8" transform="translate(342,789)"/>
<path d="M0 0 C2.57161458 0.03255208 5.14322917 0.06510417 7.71484375 0.09765625 C7.71484375 5.37765625 7.71484375 10.65765625 7.71484375 16.09765625 C12.99484375 16.09765625 18.27484375 16.09765625 23.71484375 16.09765625 C23.71484375 19.72765625 23.71484375 23.35765625 23.71484375 27.09765625 C18.43484375 27.09765625 13.15484375 27.09765625 7.71484375 27.09765625 C7.7888281 31.74336334 7.87163158 36.38713768 7.97729492 41.03198242 C8.01054563 42.61195868 8.03857721 44.19205377 8.0612793 45.7722168 C8.09482391 48.04397204 8.14713602 50.31463828 8.203125 52.5859375 C8.20951492 53.29228836 8.21590485 53.99863922 8.2224884 54.72639465 C8.30939091 57.62601142 8.3904651 59.63339512 10.078125 62.04882812 C12.52520822 63.61694708 14.53520263 63.38634947 17.40234375 63.28515625 C18.89314453 63.24455078 18.89314453 63.24455078 20.4140625 63.203125 C21.55294922 63.15091797 21.55294922 63.15091797 22.71484375 63.09765625 C23.20984375 67.55265625 23.20984375 67.55265625 23.71484375 72.09765625 C17.77242544 75.26694601 12.41508715 76.09740562 5.71484375 75.09765625 C2.48318172 73.951451 -0.00722607 72.67644514 -2.28515625 70.09765625 C-4.80996955 64.37998264 -5.71082863 59.86766541 -5.578125 53.66015625 C-5.57388016 52.89461426 -5.56963531 52.12907227 -5.56526184 51.34033203 C-5.54863953 48.92572938 -5.51102131 46.51200114 -5.47265625 44.09765625 C-5.45758803 42.44792883 -5.44390339 40.79818816 -5.43164062 39.1484375 C-5.39879042 35.13118005 -5.34712598 31.11456573 -5.28515625 27.09765625 C-8.25515625 27.09765625 -11.22515625 27.09765625 -14.28515625 27.09765625 C-14.28515625 23.79765625 -14.28515625 20.49765625 -14.28515625 17.09765625 C-11.31515625 16.76765625 -8.34515625 16.43765625 -5.28515625 16.09765625 C-5.15238281 15.02644531 -5.01960937 13.95523438 -4.8828125 12.8515625 C-4.70465065 11.45439856 -4.52625306 10.05726466 -4.34765625 8.66015625 C-4.26064453 7.95310547 -4.17363281 7.24605469 -4.08398438 6.51757812 C-3.25999838 0.13931617 -3.25999838 0.13931617 0 0 Z " fill="#0596D3" transform="translate(780.28515625,772.90234375)"/>
<path d="M0 0 C40.22168592 0 40.22168592 0 56 15 C57.79892144 17.09151709 59.37989523 19.28761169 60.9375 21.5625 C61.55334961 22.40844727 61.55334961 22.40844727 62.18164062 23.27148438 C65.02672414 27.37358623 65.02672414 27.37358623 64.90234375 30.2890625 C63.50952555 32.92999052 61.66832998 33.79289834 59 35 C55.26872827 33.75624276 55.14654021 32.8303621 53.375 29.4375 C48.49002271 21.05641151 41.87327323 15.40999104 32.75732422 11.98510742 C28.16200883 10.78029276 23.81577654 10.54019255 19.0859375 10.37109375 C18.2096167 10.33270386 17.3332959 10.29431396 16.43041992 10.25476074 C14.2872719 10.16199326 12.14366617 10.07990392 10 10 C10.0199855 10.73614029 10.03997101 11.47228058 10.06056213 12.23072815 C10.24134973 19.18882045 10.37814443 26.14655932 10.46630955 33.10640049 C10.51316536 36.68434367 10.57663729 40.26033727 10.67895508 43.8371582 C10.77719441 47.29327767 10.8306449 50.74753046 10.85389519 54.20493889 C10.87847194 56.15691185 10.94866681 58.10813919 11.01966858 60.05897522 C11.02460724 68.78229519 11.02460724 68.78229519 7.97164917 72.41061401 C2.17955525 77 2.17955525 77 0 77 C0 51.59 0 26.18 0 0 Z " fill="#F2F5F7" transform="translate(411,393)"/>
<path d="M0 0 C0 0.66 0 1.32 0 2 C0.639375 2.28875 1.27875 2.5775 1.9375 2.875 C4 4 4 4 5 6 C5.50187235 10.38779823 6.00725149 14.98549703 3.98828125 19.0234375 C1.86239538 21.64089458 0.20868631 22.9304379 -3 24 C-8.10276654 24.24690806 -11.28443698 24.07846245 -16 22 C-16.73863281 22.68964844 -17.47726562 23.37929688 -18.23828125 24.08984375 C-24.17367329 29.59937806 -30.19897784 34.90914983 -36.515625 39.984375 C-38.74732368 41.79499846 -40.91008605 43.65912568 -43.0625 45.5625 C-46 48 -46 48 -48 48 C-48.33 48.99 -48.66 49.98 -49 51 C-50.85546875 52.6484375 -50.85546875 52.6484375 -53.1875 54.375 C-53.99445312 54.99632812 -54.80140625 55.61765625 -55.6328125 56.2578125 C-58 58 -58 58 -59.9296875 59.1796875 C-61.85888832 60.34225791 -61.85888832 60.34225791 -64 63 C-64.24703263 65.82137265 -64.12080232 68.5135702 -63.96484375 71.33984375 C-64.01637613 75.23912697 -65.39523342 77.18403612 -68 80 C-71.44169247 82.86807706 -74.44757603 83.54304017 -78.94140625 83.34765625 C-82.71761818 82.70992786 -84.90751186 81.30420685 -88 79 C-90.9741633 74.68266618 -91.6486549 71.18923924 -91 66 C-88.93260732 62.16055645 -86.83961324 59.14566622 -83 57 C-78.35233127 55.6865284 -75.40899914 56.08304385 -71 58 C-68.625 59.625 -68.625 59.625 -67 61 C-62.2330264 59.08860479 -58.88516287 55.30321378 -55.24609375 51.8125 C-51.20161624 48 -51.20161624 48 -49 48 C-49 47.34 -49 46.68 -49 46 C-45.53846154 43 -45.53846154 43 -43 43 C-42.77699219 42.43023438 -42.55398438 41.86046875 -42.32421875 41.2734375 C-40.60582235 38.32327023 -38.49259955 36.73211275 -35.8125 34.625 C-32.45459261 31.95894492 -29.14320761 29.28476351 -25.9375 26.4375 C-23 24 -23 24 -21 24 C-21 23.34 -21 22.68 -21 22 C-20.484375 21.5875 -19.96875 21.175 -19.4375 20.75 C-18.963125 20.1725 -18.48875 19.595 -18 19 C-18.495 16.03 -18.495 16.03 -19 13 C-25.27 13 -31.54 13 -38 13 C-38 12.01 -38 11.02 -38 10 C-32.06 10 -26.12 10 -20 10 C-18.68 7.36 -17.36 4.72 -16 2 C-11.31762089 -2.04962517 -5.72435255 -1.83179282 0 0 Z " fill="#033F6A" transform="translate(799,696)"/>
<path d="M0 0 C1.828125 1.16796875 1.828125 1.16796875 2.828125 4.16796875 C1.90608791 6.53319433 0.91113535 8.87198682 -0.171875 11.16796875 C-6.046875 10.29296875 -6.046875 10.29296875 -7.171875 9.16796875 C-12.00313846 8.74644912 -16.60193866 8.57924262 -21.171875 10.29296875 C-24.82660632 13.71927936 -26.31706989 17.50879462 -26.60546875 22.4453125 C-26.6225668 23.99860436 -26.6235547 25.55214751 -26.609375 27.10546875 C-26.62935547 27.87826172 -26.64933594 28.65105469 -26.66992188 29.44726562 C-26.66510955 35.14025099 -25.53356263 38.54195572 -22.171875 43.16796875 C-17.88256606 46.34555884 -12.26120759 45.67616549 -7.171875 45.16796875 C-3.71841352 43.82050351 -3.71841352 43.82050351 -1.171875 42.16796875 C-0.511875 42.16796875 0.148125 42.16796875 0.828125 42.16796875 C3.828125 48.79296875 3.828125 48.79296875 3.828125 52.16796875 C2.41334365 52.81792172 0.99621013 53.46275597 -0.421875 54.10546875 C-1.21078125 54.46511719 -1.9996875 54.82476563 -2.8125 55.1953125 C-10.07282223 58.18839236 -18.00922185 58.24086212 -25.421875 55.66796875 C-31.20125284 53.04933173 -35.48463654 49.09960382 -38.00805664 43.21948242 C-41.77098714 32.94564032 -42.28540437 20.41220852 -37.671875 10.35546875 C-29.39817545 -3.62962623 -14.38441602 -6.05537513 0 0 Z " fill="#0598D4" transform="translate(756.171875,790.83203125)"/>
<path d="M0 0 C0.7282989 18.77392718 -2.03116766 36.7200138 -14.5 51.5625 C-15.64466373 52.73031423 -16.81122427 53.87712093 -18 55 C-18.59167969 55.61101562 -19.18335938 56.22203125 -19.79296875 56.8515625 C-30.83113277 67.54834001 -45.40115053 69.34496254 -60.0625 69.125 C-61.21427734 69.11597656 -62.36605469 69.10695313 -63.55273438 69.09765625 C-66.36871193 69.07428714 -69.18424158 69.04152565 -72 69 C-72.6949168 60.05851973 -72.6949168 60.05851973 -70.06640625 56.0546875 C-69.24011719 55.33539063 -68.41382813 54.61609375 -67.5625 53.875 C-66.73878906 53.12992187 -65.91507812 52.38484375 -65.06640625 51.6171875 C-63 50 -63 50 -62 50 C-62 53.3 -62 56.6 -62 60 C-47.49538202 58.90930482 -34.13314561 57.37696425 -23.22265625 46.71484375 C-15.23797126 36.96202114 -11.04463046 24.68361084 -10.875 12.1875 C-10.59745871 6.63667414 -10.59745871 6.63667414 -7.9765625 3.84375 C-2.2290684 0 -2.2290684 0 0 0 Z " fill="#F6F8FA" transform="translate(483,452)"/>
<path d="M0 0 C3.91691274 2.20326342 6.2848967 4.84764464 8 9 C8.55996076 14.30212842 8.56116875 19.1978086 6 24 C10.54427101 29.44032445 15.40003739 34.49081282 20.47167969 39.43457031 C23.87108171 42.77508862 27.013666 46.2762849 30.13037109 49.88085938 C34.10284268 54.38347799 38.31104791 58.67455373 42.47851562 62.99609375 C43.16236328 63.71410156 43.84621094 64.43210937 44.55078125 65.171875 C45.16606689 65.8122168 45.78135254 66.45255859 46.4152832 67.11230469 C47.99175145 68.99017443 49.00558858 70.76791312 50 73 C50.66 73 51.32 73 52 73 C53.54091405 74.69588264 55.00923297 76.45821672 56.4375 78.25 C57.21996094 79.22453125 58.00242187 80.1990625 58.80859375 81.203125 C60.5683617 83.44910335 62.30216098 85.70709843 64 88 C63.01 88.66 62.02 89.32 61 90 C60.68289063 89.55011719 60.36578125 89.10023438 60.0390625 88.63671875 C56.063754 83.15694266 51.6173098 78.2348502 46.9765625 73.3203125 C45 71 45 71 45 69 C44.39929688 68.73574219 43.79859375 68.47148437 43.1796875 68.19921875 C40.88484786 66.93664569 39.77074527 65.82742597 38.125 63.8125 C34.65862143 59.71654413 31.04494186 55.78747106 27.375 51.875 C26.7766333 51.235625 26.1782666 50.59625 25.56176758 49.9375 C23.70859292 47.95763147 21.85437466 45.97874457 20 44 C17.60133843 41.44012621 15.20575336 38.87742995 12.8125 36.3125 C12.27222168 35.73677246 11.73194336 35.16104492 11.17529297 34.56787109 C8.6129918 31.81922075 6.17288509 29.06892018 4 26 C3.030625 26.350625 2.06125 26.70125 1.0625 27.0625 C-4.5731961 28.66290052 -9.86690393 28.08831432 -15.0625 25.4375 C-15.701875 24.963125 -16.34125 24.48875 -17 24 C-22.23023388 27.85916848 -27.30714267 31.85511057 -32.3125 36 C-39.84427393 42.18145947 -47.63544645 47.96031773 -55.50390625 53.703125 C-61.42200686 58.02582463 -67.21789282 62.49747394 -73 67 C-73.92167969 67.71542969 -74.84335938 68.43085938 -75.79296875 69.16796875 C-77.86372936 70.77642002 -79.93286841 72.38688956 -82 74 C-82.66 73.34 -83.32 72.68 -84 72 C-80.25674971 68.92842163 -76.38240301 66.07341096 -72.46606445 63.22998047 C-65.35576562 58.06179771 -58.42257051 52.81189735 -51.78540039 47.04907227 C-47.63587143 43.47198267 -43.32722936 40.15152709 -38.9375 36.875 C-38.2676709 36.3689624 -37.5978418 35.8629248 -36.90771484 35.34155273 C-33.76380984 32.98266524 -30.61095607 30.71888504 -27.28125 28.62890625 C-24.15843935 26.58229787 -21.47864086 24.79445224 -19 22 C-18.6229072 18.9481792 -19.01682659 16.64625089 -19.671875 13.65234375 C-20.15397757 9.75534799 -18.70266216 7.76935511 -16.51953125 4.65625 C-11.59202966 -0.71460007 -7.04524845 -0.94215804 0 0 Z " fill="#053B60" transform="translate(270,186)"/>
<path d="M0 0 C4.42401009 2.44732473 6.11571852 5.38694113 8 10 C8.41740864 13.01143161 8.42008878 15.96402228 8.375 19 C8.38660156 19.78117188 8.39820313 20.56234375 8.41015625 21.3671875 C8.37929608 27.47750199 7.0098509 31.61330205 3 36.375 C-1.57996166 38.85581256 -5.91006458 38.8802144 -11 38 C-15.35691514 34.97683439 -16.65594201 32.01392067 -18 27 C-18.29498062 24.16076775 -18.32503385 21.35270399 -18.3125 18.5 C-18.33666992 17.39978516 -18.33666992 17.39978516 -18.36132812 16.27734375 C-18.36667631 10.29807281 -16.93174316 6.22443152 -12.9375 1.625 C-8.6427285 -0.75083104 -4.80133043 -0.77517361 0 0 Z " fill="#03365C" transform="translate(498,799)"/>
<path d="M0 0 C3.06765423 1.72196807 5.40321354 3.80642707 7 7 C7.54869361 12.0012073 7.47989482 15.94792289 5.375 20.5625 C2.53068823 23.48166208 0.94149932 23.51946104 -3 24 C-2.98061729 29.78478888 -2.92901639 35.56804849 -2.84741211 41.35229492 C-2.82420171 43.32030913 -2.80982927 45.28844809 -2.80444336 47.2565918 C-2.79517583 50.08461521 -2.75423542 52.91066833 -2.70703125 55.73828125 C-2.7109639 56.61962234 -2.71489655 57.50096344 -2.71894836 58.40901184 C-2.66375269 60.71490649 -2.57713674 62.76655256 -2 65 C0.30762878 67.05661579 0.30762878 67.05661579 3 68 C5.0676935 70.13899327 5.8871907 71.46415581 6.5 74.375 C5.77902071 78.16014127 3.95003023 80.63552853 1 83 C-2.4375 84.1875 -2.4375 84.1875 -6 84 C-10.08273511 81.58060142 -11.67693284 80.06422122 -13.0625 75.5 C-12.99256618 71.58370586 -12.48078416 69.99404985 -10 67 C-8.02 66.01 -8.02 66.01 -6 65 C-5.67 51.47 -5.34 37.94 -5 24 C-6.65 24 -8.3 24 -10 24 C-11.765625 22.828125 -11.765625 22.828125 -13.25 21.25 C-13.75015625 20.73953125 -14.2503125 20.2290625 -14.765625 19.703125 C-16 18 -16 18 -17 14 C-19.97 13.67 -22.94 13.34 -26 13 C-25.67 12.34 -25.34 11.68 -25 11 C-23.72125 10.938125 -22.4425 10.87625 -21.125 10.8125 C-18.94201693 10.68435527 -18.94201693 10.68435527 -17 10 C-15.23924485 6.64161457 -15.23924485 6.64161457 -14 3 C-10.00305143 -0.64427664 -5.16772558 -0.99903306 0 0 Z " fill="#034068" transform="translate(229,311)"/>
<path d="M0 0 C0.66 0 1.32 0 2 0 C2.51046875 1.17755859 2.51046875 1.17755859 3.03125 2.37890625 C8.05320028 13.26425062 13.78827324 18.82155554 25 23 C25 23.66 25 24.32 25 25 C24.21496094 25.3403125 23.42992187 25.680625 22.62109375 26.03125 C11.73574938 31.05320028 6.17844446 36.78827324 2 48 C1.34 48 0.68 48 0 48 C-0.3403125 47.21496094 -0.680625 46.42992187 -1.03125 45.62109375 C-6.05320028 34.73574938 -11.78827324 29.17844446 -23 25 C-23 24.34 -23 23.68 -23 23 C-22.21496094 22.6596875 -21.42992187 22.319375 -20.62109375 21.96875 C-9.73574938 16.94679972 -4.17844446 11.21172676 0 0 Z " fill="#7D8C98" transform="translate(967,944)"/>
<path d="M0 0 C0.99 0 1.98 0 3 0 C2.68863179 7.62852104 1.19743055 14.45166694 -1.0625 21.73828125 C-2.04733722 24.90362547 -2.04733722 24.90362547 -2.4375 27.85546875 C-3.04023629 31.22493205 -4.05252401 34.25180894 -5.16650391 37.47998047 C-6.70064412 42.11835049 -7.92302625 46.84492015 -9.1875 51.5625 C-9.46013672 52.57119141 -9.73277344 53.57988281 -10.01367188 54.61914062 C-10.67813075 57.07880419 -11.34019193 59.53908558 -12 62 C-11.21367187 62.43957031 -10.42734375 62.87914062 -9.6171875 63.33203125 C-6.2030215 65.5079251 -5.2981583 67.17764499 -4 71 C-3.7897651 75.288792 -4.51834202 78.2359908 -6.8125 81.875 C-10.0769371 85.04616746 -11.8070458 85.88954128 -16.375 86.3125 C-20.41724033 85.96403101 -22.65119121 85.28327872 -26 83 C-28.96136463 78.65666521 -29.55690438 75.19777425 -29 70 C-28.125 66.8125 -28.125 66.8125 -26 64 C-22.31519036 62.02621308 -18.24285318 60 -14 60 C-13.90332031 58.76765625 -13.80664062 57.5353125 -13.70703125 56.265625 C-13.03435732 50.23865504 -11.37529982 44.55996857 -9.6875 38.75 C-9.37353271 37.64479004 -9.05956543 36.53958008 -8.73608398 35.40087891 C-7.10521456 29.69220527 -5.39237184 24.02259008 -3.5625 18.375 C-2.18879138 14.04343368 -1.57896267 10.52615133 -2 6 C-2.99 6.66 -3.98 7.32 -5 8 C-3.63029745 5.04987143 -2.17390875 2.4347778 0 0 Z " fill="#025283" transform="translate(338,309)"/>
<path d="M0 0 C2.44508024 2.26617193 3.53542207 4.07084414 5 7 C5.12834362 11.66620736 4.56916337 15.12846859 2 19.0625 C-2.0379994 21.67037461 -5.31226922 21.76255894 -10 21 C-11.65 20.34 -13.3 19.68 -15 19 C-18.63 22.3 -22.26 25.6 -26 29 C-26.66 28.67 -27.32 28.34 -28 28 C-27.12214844 27.29875 -26.24429688 26.5975 -25.33984375 25.875 C-24.20459354 24.91801222 -23.07054049 23.959603 -21.9375 23 C-21.35677734 22.54238281 -20.77605469 22.08476563 -20.17773438 21.61328125 C-18.48228799 20.14857609 -17.18026195 18.90879814 -16 17 C-15.85121859 14.13689838 -16.40780356 11.84776818 -17 9 C-13.97984461 0.57535601 -8.50004513 -1.55574869 0 0 Z " fill="#043B62" transform="translate(106,529)"/>
<path d="M0 0 C3.87330118 2.41005407 5.93437742 4.52438514 7 9 C7 13.02783217 6.01964576 15.38477671 3.4375 18.375 C0.98202012 20.62388902 -0.72958096 21.42994072 -4.0625 21.5625 C-8.00718048 20.99897422 -10.02957312 20.62096489 -13 18 C-15.28058736 13.43882527 -15.33424189 9.89222026 -14 5 C-9.33500672 -0.50229976 -7.06237437 -1.55611639 0 0 Z " fill="#005287" transform="translate(327,530)"/>
<path d="M0 0 C2.72855786 2.20210669 4.43184849 4.86369697 6 8 C6 9.98 6 11.96 6 14 C-1.92 14 -9.84 14 -18 14 C-16.84146341 4.73170732 -16.84146341 4.73170732 -13 1 C-8.66757829 -1.63950062 -4.77748202 -1.49030188 0 0 Z " fill="#04375B" transform="translate(688,799)"/>
<path d="M0 0 C3 2 3 2 5 5 C5.33 7.97 5.66 10.94 6 14 C-1.59 14 -9.18 14 -17 14 C-17 6.11004785 -17 6.11004785 -14.125 3.125 C-13.59132813 2.55007813 -13.05765625 1.97515625 -12.5078125 1.3828125 C-8.76849722 -2.04650773 -4.63969269 -1.13788664 0 0 Z " fill="#0C395D" transform="translate(318,799)"/>
<path d="M0 0 C3.625 0.375 3.625 0.375 6.0625 2 C8.09711873 5.09262047 8.31989232 6.7461179 7.625 10.375 C4.79211528 12.9579243 3.26966694 13.40028106 -0.5625 13.25 C-3.375 12.375 -3.375 12.375 -5.375 9.375 C-5.625 5.8125 -5.625 5.8125 -5.375 2.375 C-3.375 0.375 -3.375 0.375 0 0 Z " fill="#004674" transform="translate(322.375,533.625)"/>
<path d="M0 0 C7.61297701 3.26515944 13.15016509 11.03760577 18.42578125 17.2109375 C19.86741181 18.84931665 21.36254459 20.36621919 22.9375 21.875 C25 24 25 24 25 26 C25.66 26 26.32 26 27 26 C28.54091405 27.69588264 30.00923297 29.45821672 31.4375 31.25 C32.21996094 32.22453125 33.00242187 33.1990625 33.80859375 34.203125 C35.5683617 36.44910335 37.30216098 38.70709843 39 41 C38.01 41.66 37.02 42.32 36 43 C35.68289063 42.55011719 35.36578125 42.10023438 35.0390625 41.63671875 C31.063754 36.15694266 26.6173098 31.2348502 21.9765625 26.3203125 C20 24 20 24 20 22 C19.40574219 21.7421875 18.81148438 21.484375 18.19921875 21.21875 C15.80697497 19.89303053 14.55218361 18.59621136 12.8125 16.5 C9.23427877 12.25280698 5.49846511 8.17363683 1.72265625 4.1015625 C0 2 0 2 0 0 Z " fill="#034269" transform="translate(295,233)"/>
<path d="M0 0 C3.16259871 -0.40373601 5.14012639 -0.54458662 7.875 1.1875 C9.43323149 3.69798407 9.49631357 5.09302053 9 8 C7.3125 10.375 7.3125 10.375 5 12 C1.60845705 11.83849795 0.41703243 11.41703243 -2 9 C-2.34490322 4.94738713 -2.30163882 3.45245824 0 0 Z " fill="#022642" transform="translate(101,822)"/>
<path d="M0 0 C2 2 2 2 2.375 4.9375 C2 8 2 8 0.3125 9.9375 C-2.61449654 11.28233625 -3.98584989 11.03115662 -7 10 C-9 8 -9 8 -9.375 5.0625 C-9 2 -9 2 -7.3125 0.0625 C-4.38550346 -1.28233625 -3.01415011 -1.03115662 0 0 Z " fill="#042440" transform="translate(10,359)"/>
<path d="M0 0 C3.0625 0.3125 3.0625 0.3125 5 1.5 C6.0625 3.3125 6.0625 3.3125 5.9375 5.8125 C4.98454015 8.53524244 4.51961489 9.78739421 2.0625 11.3125 C-1 11.1875 -1 11.1875 -3.9375 10.3125 C-5.9375 7.3125 -5.9375 7.3125 -5.6875 4.75 C-4.58727173 1.17425813 -3.7416128 0.39804391 0 0 Z " fill="#032C4E" transform="translate(101.9375,417.6875)"/>
<path d="M0 0 C6.75 0.75 6.75 0.75 9 3 C9.35877543 5.79844834 9.33812547 7.403308 7.9375 9.875 C4.88430685 11.64782183 2.33588292 10.69235306 -1 10 C-2.25 3.375 -2.25 3.375 0 0 Z " fill="#012743" transform="translate(37,660)"/>
<path d="M0 0 C8.91 0 17.82 0 27 0 C27.33 0.99 27.66 1.98 28 3 C8.65957447 4.38297872 8.65957447 4.38297872 -1 3 C-0.67 2.01 -0.34 1.02 0 0 Z " fill="#013863" transform="translate(810,678)"/>
<path d="M0 0 C1.67316284 0.02356567 1.67316284 0.02356567 3.38012695 0.04760742 C5.19287109 0.06210937 5.19287109 0.06210937 7.04223633 0.0769043 C8.93619141 0.11460937 8.93619141 0.11460937 10.8684082 0.15307617 C12.77976562 0.17337891 12.77976562 0.17337891 14.72973633 0.1940918 C17.88054878 0.22949418 21.03051865 0.27887827 24.1809082 0.34057617 C22.8609082 0.67057617 21.5409082 1.00057617 20.1809082 1.34057617 C20.1809082 2.00057617 20.1809082 2.66057617 20.1809082 3.34057617 C11.6009082 3.34057617 3.0209082 3.34057617 -5.8190918 3.34057617 C-2.8190918 0.34057617 -2.8190918 0.34057617 0 0 Z " fill="#02345C" transform="translate(861.819091796875,705.659423828125)"/>
<path d="M0 0 C0.33 0 0.66 0 1 0 C1.144375 1.051875 1.28875 2.10375 1.4375 3.1875 C1.84599244 6.82248463 1.84599244 6.82248463 2.875 9.4375 C3.04222645 12.86564215 1.56474701 14.7011548 -0.3203125 17.46484375 C-2.4789178 20.72283175 -4.38982516 24.09906838 -6.3125 27.5 C-6.67400146 28.13607178 -7.03550293 28.77214355 -7.40795898 29.42749023 C-8.27351815 30.95078302 -9.13698312 32.47526545 -10 34 C-10.66 34 -11.32 34 -12 34 C-10.36036204 28.05384306 -7.37624538 22.96477922 -4.375 17.625 C-3.859375 16.69816406 -3.34375 15.77132812 -2.8125 14.81640625 C-1.54617189 12.54170575 -0.27524075 10.26971208 1 8 C0.34 7.67 -0.32 7.34 -1 7 C-0.67 4.69 -0.34 2.38 0 0 Z " fill="#04416D" transform="translate(305,655)"/>
<path d="M0 0 C0 0.66 0 1.32 0 2 C-2.61284045 2.71259285 -5.22583792 3.42450124 -7.83984375 4.1328125 C-9.89822151 4.69765782 -11.95317849 5.27516986 -14.00390625 5.8671875 C-15.42509766 6.27324219 -15.42509766 6.27324219 -16.875 6.6875 C-17.73867188 6.93886719 -18.60234375 7.19023437 -19.4921875 7.44921875 C-22.07290211 8.01601121 -24.36656803 8.09910765 -27 8 C-27.33 7.34 -27.66 6.68 -28 6 C-27.37432129 5.85377197 -26.74864258 5.70754395 -26.10400391 5.55688477 C-23.27705709 4.89467208 -20.45102513 4.2286345 -17.625 3.5625 C-16.64015625 3.33240234 -15.6553125 3.10230469 -14.640625 2.86523438 C-13.69960938 2.64287109 -12.75859375 2.42050781 -11.7890625 2.19140625 C-10.91975098 1.98717041 -10.05043945 1.78293457 -9.15478516 1.57250977 C-2.94459647 -0.07748938 -2.94459647 -0.07748938 0 0 Z " fill="#9FBAC9" transform="translate(730,323)"/>
<path d="M0 0 C-0.33 0.99 -0.66 1.98 -1 3 C-2.2375 3.0825 -3.475 3.165 -4.75 3.25 C-9.96242551 3.79693177 -14.60037216 5.44458228 -19.49609375 7.2578125 C-22 8 -22 8 -24 7 C-21.8441589 4.55464948 -20.30122849 3.54998388 -17.12890625 2.83203125 C-16.01999023 2.57583008 -16.01999023 2.57583008 -14.88867188 2.31445312 C-14.12103516 2.14880859 -13.35339844 1.98316406 -12.5625 1.8125 C-11.79873047 1.63525391 -11.03496094 1.45800781 -10.24804688 1.27539062 C-6.66559208 0.4678573 -3.71649062 0 0 0 Z " fill="#094870" transform="translate(731,317)"/>
<path d="M0 0 C3.88397689 1.55002747 6.02979619 4.00476621 8.75 7.125 C9.94882812 8.49011719 9.94882812 8.49011719 11.171875 9.8828125 C12.07679688 10.93082031 12.07679688 10.93082031 13 12 C12.01 12.99 11.02 13.98 10 15 C9.61328125 14.48050781 9.2265625 13.96101563 8.828125 13.42578125 C6.47649657 10.27669466 4.12880709 7.15592437 1.625 4.125 C0 2 0 2 0 0 Z " fill="#034879" transform="translate(321,261)"/>
<path d="M0 0 C-2.87078299 1.91385532 -5.33411656 2.96432952 -8.5625 4.125 C-9.53316406 4.47820312 -10.50382813 4.83140625 -11.50390625 5.1953125 C-14 6 -14 6 -16 6 C-16 4.68 -16 3.36 -16 2 C-14.08654673 1.46748234 -12.1690705 0.94940517 -10.25 0.4375 C-9.18265625 0.14746094 -8.1153125 -0.14257812 -7.015625 -0.44140625 C-4.15664073 -0.97098494 -2.68402617 -0.98370862 0 0 Z " fill="#E3EBF0" transform="translate(704,331)"/>
<path d="M0 0 C5.28 0 10.56 0 16 0 C15.67 0.99 15.34 1.98 15 3 C10.545 3.495 10.545 3.495 6 4 C5.67 3.01 5.34 2.02 5 1 C3.35 1 1.7 1 0 1 C0 0.67 0 0.34 0 0 Z " fill="#023A65" transform="translate(812,623)"/>
<path d="M0 0 C0.99 0.33 1.98 0.66 3 1 C-0.13347921 8.5273523 -0.13347921 8.5273523 -3.75 10.5 C-4.4925 10.665 -5.235 10.83 -6 11 C-5.67 9.68 -5.34 8.36 -5 7 C-4.34 7 -3.68 7 -3 7 C-2.87625 6.401875 -2.7525 5.80375 -2.625 5.1875 C-2 3 -2 3 0 0 Z " fill="#00538A" transform="translate(487,656)"/>
<path d="M0 0 C2.97 0 5.94 0 9 0 C7.02 2.97 5.04 5.94 3 9 C2 7 2 7 2 4 C1.34 2.68 0.68 1.36 0 0 Z " fill="#18608E" transform="translate(537,707)"/>
<path d="M0 0 C0 0.33 0 0.66 0 1 C-2.97 1 -5.94 1 -9 1 C-9 1.66 -9 2.32 -9 3 C-8.01 3.33 -7.02 3.66 -6 4 C-5.67 4.99 -5.34 5.98 -5 7 C-8.99500618 5.6302836 -11.80009492 3.74277578 -15 1 C-10.03926578 -0.32286246 -5.08888488 -0.08893197 0 0 Z " fill="#0D5789" transform="translate(406,643)"/>
<path d="M0 0 C3.63 0 7.26 0 11 0 C11.33 0.99 11.66 1.98 12 3 C8.04 3 4.08 3 0 3 C0 2.01 0 1.02 0 0 Z " fill="#024776" transform="translate(517,728)"/>
<path d="M0 0 C3.3 0 6.6 0 10 0 C10.33 0.66 10.66 1.32 11 2 C8.24075815 3.80411967 7.11027897 4.0127245 3.75 3.625 C2.8425 3.41875 1.935 3.2125 1 3 C0.67 2.01 0.34 1.02 0 0 Z " fill="#023B66" transform="translate(719,789)"/>
<path d="M0 0 C0.99 0 1.98 0 3 0 C2.67 2.97 2.34 5.94 2 9 C1.01 7.68 0.02 6.36 -1 5 C-2.32 5.99 -3.64 6.98 -5 8 C-3.63029745 5.04987143 -2.17390875 2.4347778 0 0 Z " fill="#0F5784" transform="translate(338,309)"/>
<path d="M0 0 C0.33 0 0.66 0 1 0 C1.144375 1.051875 1.28875 2.10375 1.4375 3.1875 C1.88242725 6.84811514 1.88242725 6.84811514 2.8125 9.6875 C3 12 3 12 1.0625 14.3125 C0.381875 14.869375 -0.29875 15.42625 -1 16 C-1 12.23312136 -0.76462683 11.08809695 1 8 C0.34 7.67 -0.32 7.34 -1 7 C-0.67 4.69 -0.34 2.38 0 0 Z " fill="#155079" transform="translate(305,655)"/>
<path d="M0 0 C1 3 1 3 -0.25 5.8125 C-0.8275 6.864375 -1.405 7.91625 -2 9 C-2.556875 10.11375 -3.11375 11.2275 -3.6875 12.375 C-4.120625 13.24125 -4.55375 14.1075 -5 15 C-5.66 15 -6.32 15 -7 15 C-5.45454854 9.52067211 -2.84456788 4.88570819 0 0 Z " fill="#19507B" transform="translate(323,608)"/>
<path d="M0 0 C-0.33 0.99 -0.66 1.98 -1 3 C-5.29 3 -9.58 3 -14 3 C-14 2.67 -14 2.34 -14 2 C-12.4176994 1.66179834 -10.83410625 1.32964061 -9.25 1 C-8.36828125 0.814375 -7.4865625 0.62875 -6.578125 0.4375 C-4 0 -4 0 0 0 Z " fill="#2D688B" transform="translate(731,317)"/>
<path d="M0 0 C0 3 0 3 -1.53125 4.82421875 C-2.1809375 5.43910156 -2.830625 6.05398438 -3.5 6.6875 C-4.1496875 7.31011719 -4.799375 7.93273437 -5.46875 8.57421875 C-5.9740625 9.04472656 -6.479375 9.51523437 -7 10 C-7.99 9.67 -8.98 9.34 -10 9 C-6.7 6.03 -3.4 3.06 0 0 Z " fill="#114B74" transform="translate(696,633)"/>
<path d="M0 0 C0.94875 0.350625 1.8975 0.70125 2.875 1.0625 C2.545 1.7225 2.215 2.3825 1.875 3.0625 C-0.105 3.0625 -2.085 3.0625 -4.125 3.0625 C-4.455 2.0725 -4.785 1.0825 -5.125 0.0625 C-3.125 -0.9375 -3.125 -0.9375 0 0 Z " fill="#02406E" transform="translate(385.125,726.9375)"/>
<path d="M0 0 C0.66 0.33 1.32 0.66 2 1 C0.68 3.31 -0.64 5.62 -2 8 C-2.66 7.67 -3.32 7.34 -4 7 C-3.6875 4.625 -3.6875 4.625 -3 2 C-2.01 1.34 -1.02 0.68 0 0 Z " fill="#02345C" transform="translate(901,681)"/>
<path d="M0 0 C-2.97 1.32 -5.94 2.64 -9 4 C-9.33 3.01 -9.66 2.02 -10 1 C-3.375 -1.125 -3.375 -1.125 0 0 Z " fill="#024B79" transform="translate(610,378)"/>
<path d="M0 0 C1.98 0 3.96 0 6 0 C6 0.99 6 1.98 6 3 C4.02 3 2.04 3 0 3 C0 2.01 0 1.02 0 0 Z " fill="#023F6C" transform="translate(666,706)"/>
<path d="M0 0 C0.33 0.66 0.66 1.32 1 2 C0.06553465 4.03144641 -0.93224776 6.03533587 -2 8 C-2.66 7.67 -3.32 7.34 -4 7 C-2.92598892 4.08482708 -2.22189824 2.22189824 0 0 Z " fill="#01345B" transform="translate(901,627)"/>
<path d="M0 0 C-0.3125 1.9375 -0.3125 1.9375 -1 4 C-1.99 4.33 -2.98 4.66 -4 5 C-4 4.01 -4 3.02 -4 2 C-4.66 1.67 -5.32 1.34 -6 1 C-4 0 -4 0 0 0 Z " fill="#1199D5" transform="translate(582,393)"/>
<path d="M0 0 C-0.33 0.66 -0.66 1.32 -1 2 C-3.875 2.75 -3.875 2.75 -7 3 C-7.99 2.34 -8.98 1.68 -10 1 C-6.59437148 0.22157062 -3.49234244 -0.09978121 0 0 Z " fill="#B4CAD5" transform="translate(720,326)"/>
</svg>
